<?xml version="1.0" encoding="utf-8"?>
<!-- Generator: Adobe Illustrator 16.0.0, SVG Export Plug-In . SVG Version: 6.00 Build 0)  -->
<!DOCTYPE svg PUBLIC "-//W3C//DTD SVG 1.1//EN" "http://www.w3.org/Graphics/SVG/1.1/DTD/svg11.dtd">
<svg version="1.1" id="Layer_1" xmlns="http://www.w3.org/2000/svg" xmlns:xlink="http://www.w3.org/1999/xlink" x="0px" y="0px"
	 width="689.809px" height="147.637px" viewBox="0 0 689.809 147.637" enable-background="new 0 0 689.809 147.637"
	 xml:space="preserve">
<g>
	<path fill="#FFE40E" d="M380.406,116.471c12.757,0,19.412-4.209,19.412-13.01c0-8.604-6.863-13.38-20.179-13.38
		c-4.937,0-10.837,0.381-17.308,1.339V62.367c5.317,0.592,10.277,0.768,15.226,0.768c13.696,0,20.536-4.017,20.536-13.169
		c0-8.977-6.257-13.169-19.192-13.169c-8.386,0-19.015,2.304-32.126,6.317v-30.3c11.636-4.025,25.684-5.929,42.224-5.929
		c35.964,0,56.69,15.484,56.69,39.778c0,14.916-9.683,25.808-26.633,29.452c18.836,3.838,28.524,14.346,28.524,30.413
		c0,25.213-21.085,39.919-61.419,39.919c-13.519,0-26.806-1.892-40.508-5.138v-31.184c13.518,4.02,24.919,6.321,34.844,6.321
		L380.406,116.471z M530.488,56.615c28.345,0,47.174,17.398,47.174,43.021c0,27.544-21.499,46.662-55.352,46.662
		c-39.942,0-65.635-25.047-65.635-66.154c0-46.831,27.227-73.23,76.298-73.23c10.514,0,21.736,1.182,33.305,3.662v30.413
		c-10.629-3.247-20.899-4.784-31.771-4.784c-21.673,0-31.771,8.801-32.301,28.703c8.027-6.084,16.77-8.209,28.345-8.209
		L530.488,56.615z M534.479,98.697c0-11.102-6.274-18.189-15.397-18.189c-9.136,0-15.226,6.886-15.226,18.189
		c0,11.078,6.09,17.965,15.226,17.965C528.4,116.662,534.479,109.775,534.479,98.697z M591.746,10.334h92.63v31.748h-49.308V62.16
		c3.955-0.193,6.672-0.384,7.555-0.384c30.594,0,47.186,15.53,47.186,41.696c0,26.984-20.196,43.045-59.527,43.045
		c-13.697,0-27.221-2.064-40.923-5.49v-30.236c10.45,2.895,19.607,4.25,27.405,4.25c15.939,0,24.325-5.369,24.325-15.295
		c0-11.049-8.737-16.603-26.633-16.603c-7.618,0-15.04,1.344-22.837,3.247V10.334H591.746z"/>
	<path fill="#FFFFFF" d="M0,0h46.95v56.355c6.672-9.164,15.825-13.451,28.227-13.451c27.295,0,42.757,19.104,42.757,53.042
		c0,32.382-15.652,51.69-41.606,51.69c-15.836,0-26.525-5.848-32.627-18.328v16.955H0V0z M45.603,94.96
		c0,14.839,3.247,22.054,11.644,22.054c8.209,0,11.828-7.209,11.828-22.048c0-14.764-3.435-22.027-11.828-22.027
		c-8.397,0-11.644,7.264-11.644,22.027V94.96z M237.943,104.35h-65.055c1.139,10.945,9.544,16.124,25.378,16.124
		c11.064,0,22.515-2.11,33.57-6.332v25.513c-10.865,4.406-25.747,6.91-43.109,6.91c-40.075,0-61.635-19.182-61.635-52.942
		c0-33.002,21.199-52.757,56.514-52.757c39.156,0,54.39,18.219,54.39,56.979v6.511L237.943,104.35z M197.112,84.983v-3.074
		c0-11.321-4.193-17.835-12.212-17.835c-8.209,0-12.402,6.514-12.402,18.025v2.872h24.614V84.983z M330.706,43.547v29.349h-21.892
		v23.979c0,12.283,1.932,18.039,11.326,18.039c2.541,0,5.966-0.415,9.98-1.361v28.767c-10.156,3.067-20.314,4.187-31.062,4.187
		c-13.229,0-23.386-4.25-29.352-11.511c-7.677-9.631-7.854-21.673-7.854-37.798v-24.33h-16.777V43.523h16.713V21.295L308.814,6.52
		v37.027H330.706z"/>
</g>
</svg>
